<svg width="64" height="64" viewBox="0 0 64 64" fill="none" xmlns="http://www.w3.org/2000/svg">
<circle cx="32" cy="32" r="32" fill="black"/>
<path d="M32.6583 44.4903C30.816 44.4903 29.1966 44.1931 27.8 43.5989C26.4331 43.0046 25.2891 42.1726 24.368 41.1029C23.4469 40.0331 22.7486 38.7554 22.2731 37.2697C21.8274 35.784 21.6046 34.1646 21.6046 32.4114C21.6046 30.688 21.872 29.0983 22.4069 27.6423C22.9417 26.1566 23.6846 24.8789 24.6354 23.8091C25.616 22.7394 26.76 21.9074 28.0674 21.3131C29.4046 20.7189 30.8606 20.4217 32.4354 20.4217C34.4857 20.4217 36.1794 20.8526 37.5166 21.7143C38.8834 22.5463 39.968 23.616 40.7703 24.9234C41.6023 26.2309 42.1669 27.6571 42.464 29.2023C42.7909 30.7474 42.9246 32.2183 42.8651 33.6149H25.616C25.5863 34.6251 25.7051 35.5909 25.9726 36.512C26.24 37.4034 26.6709 38.2057 27.2651 38.9189C27.8594 39.6023 28.6171 40.152 29.5383 40.568C30.4594 40.984 31.544 41.192 32.792 41.192C34.3966 41.192 35.704 40.8206 36.7143 40.0777C37.7543 39.3349 38.4377 38.2057 38.7646 36.6903H42.5086C42.0034 39.3051 40.8891 41.2663 39.1657 42.5737C37.4423 43.8514 35.2731 44.4903 32.6583 44.4903ZM38.8537 30.272C38.7943 29.3806 38.5863 28.5337 38.2297 27.7314C37.9029 26.9291 37.4423 26.2457 36.848 25.6811C36.2834 25.0869 35.6 24.6263 34.7977 24.2994C34.0251 23.9429 33.1634 23.7646 32.2126 23.7646C31.232 23.7646 30.3406 23.9429 29.5383 24.2994C28.7657 24.6263 28.0971 25.0869 27.5326 25.6811C26.968 26.2754 26.5223 26.9737 26.1954 27.776C25.8686 28.5486 25.6754 29.3806 25.616 30.272H38.8537Z" fill="white"/>
</svg>
